<?xml version="1.0" encoding="utf-8"?>
<!-- Svg Vector Icons : http://www.onlinewebfonts.com/icon -->
<!DOCTYPE svg PUBLIC "-//W3C//DTD SVG 1.1//EN" "http://www.w3.org/Graphics/SVG/1.1/DTD/svg11.dtd">
<svg version="1.1" xmlns="http://www.w3.org/2000/svg" xmlns:xlink="http://www.w3.org/1999/xlink" x="0px" y="0px" viewBox="0 0 1000 1000" enable-background="new 0 0 1000 1000" xml:space="preserve">
<metadata> Svg Vector Icons : http://www.onlinewebfonts.com/icon </metadata>
<g><path d="M978.5,203.8c-16.7-21.7-46.9-24.8-76.2-24.8H195.2l-9.7-71.1c-5.5-42.4-26.3-47.7-72.6-47.7H37.7C15.6,60.1,10,82.4,10,94.8c0,12.2,8.9,31.1,30.4,31h39.5c29,0.4,39.9,17,44.2,37.8l82.3,547.1C212,754,249.1,781,294.6,781h563.7c18.2,0,33-8.2,32.8-30.1c-0.2-20.9-13.9-32.7-32.8-32.8H309.1c-23.2,0-38.3-14-41.1-35.2l-7.3-46.8h543.9c41.4,0,76-22.7,86.1-60.5l95.7-308.7C993.2,241.2,990.3,220,978.5,203.8L978.5,203.8z M910.4,298.9l-76.5,248c-4.9,18.4-21.8,26.3-43.1,26.3H250.1l-45.3-330.5h662.5c15.4,0,38.2,1.2,46.3,11.9C920.8,264.1,913.7,286.6,910.4,298.9L910.4,298.9z M399.9,875.8c0,35.3-28.6,64-63.9,64s-63.9-28.6-63.9-64c0-35.3,28.6-63.9,63.9-63.9S399.9,840.5,399.9,875.8L399.9,875.8z M805.6,875.8c0,35.3-28.6,64-64,64c-35.4,0-63.9-28.6-63.9-64c0-35.3,28.6-63.9,63.9-63.9C776.9,812,805.6,840.5,805.6,875.8L805.6,875.8z"/></g>
</svg>